<svg xmlns="http://www.w3.org/2000/svg" width="28" height="28" viewBox="0 0 28 28"><g><g><path fill="#0f1222" d="M20.887 20.425c0 .251-.203.454-.454.454H7.588a.454.454 0 0 1-.454-.454V7.58c0-.251.203-.454.454-.454h12.845c.25 0 .454.203.454.454zm2.004-5.97h2a1.59 1.59 0 0 0 1.52 1.134A1.59 1.59 0 0 0 28 14a1.59 1.59 0 0 0-1.588-1.588 1.59 1.59 0 0 0-1.522 1.134h-2V5.751l1.535-1.535a1.59 1.59 0 0 0 1.88-2.52 1.59 1.59 0 0 0-2.247 0 1.592 1.592 0 0 0-.274 1.879l-1.547 1.547h-7.783V3.11a1.59 1.59 0 0 0 1.134-1.521A1.59 1.59 0 0 0 14 0a1.59 1.59 0 0 0-1.588 1.589c0 .718.48 1.325 1.134 1.521v2.012H5.763L4.216 3.575a1.592 1.592 0 0 0-.274-1.88 1.591 1.591 0 0 0-2.247 0A1.59 1.59 0 0 0 2.82 4.407c.26 0 .52-.064.755-.19L5.13 5.771v7.774H3.11a1.59 1.59 0 0 0-1.522-1.134A1.59 1.59 0 0 0 0 14a1.59 1.59 0 0 0 1.588 1.589 1.59 1.59 0 0 0 1.522-1.135h2.02v7.775l-1.555 1.555a1.591 1.591 0 0 0-1.88.273c-.619.62-.619 1.628 0 2.248.31.31.717.464 1.124.464.407 0 .814-.155 1.124-.464a1.592 1.592 0 0 0 .273-1.88l1.543-1.542h7.787v2.007a1.59 1.59 0 0 0-1.134 1.522A1.59 1.59 0 0 0 14 28a1.59 1.59 0 0 0 1.588-1.588 1.59 1.59 0 0 0-1.134-1.522v-2.007h7.787l1.543 1.542a1.592 1.592 0 0 0 .274 1.88c.31.31.716.464 1.123.464.407 0 .814-.155 1.124-.464a1.59 1.59 0 0 0 0-2.248 1.592 1.592 0 0 0-1.88-.273l-1.534-1.535v-7.795z"/></g><g><path fill="#0f1222" d="M18.335 15.037c0 .803-.595 1.47-1.367 1.582a1.6 1.6 0 0 1-2.688 1.282v-7.747a1.6 1.6 0 0 1 2.688 1.282 1.601 1.601 0 0 1 1.007 2.592c.231.283.36.64.36 1.01zm-5.57.673a.252.252 0 1 1-.505 0 .252.252 0 0 1 .505 0zm-.673-1.682a.252.252 0 1 1-.505 0 .252.252 0 0 1 .505 0zm.673-1.683a.252.252 0 1 1-.505 0 .252.252 0 0 1 .505 0zm1.01-.253h-.548a.758.758 0 0 0-1.471.253.758.758 0 0 0 1.47.252h.549v1.178h-1.221a.758.758 0 0 0-1.471.253.758.758 0 0 0 1.47.252h1.222v1.178h-.548a.758.758 0 0 0-1.471.252.758.758 0 0 0 1.47.253h.549V17.9a1.593 1.593 0 0 1-1.094.434 1.6 1.6 0 0 1-1.594-1.716 1.601 1.601 0 0 1-1.008-2.591 1.599 1.599 0 0 1 1.008-2.592 1.6 1.6 0 0 1 2.688-1.282zM8.041 8.033v11.938H19.98V8.033z"/></g></g></svg>