<?xml version="1.0" encoding="UTF-8"?>
<svg id="SVGDoc" width="28" height="28" xmlns="http://www.w3.org/2000/svg" version="1.1" xmlns:xlink="http://www.w3.org/1999/xlink" xmlns:avocode="https://avocode.com/" viewBox="0 0 28 28"><defs></defs><desc>Generated with Avocode.</desc><g><g><title>Group 76369</title><g><title>Path 45204</title><path d="M2.79113,26.63443c-0.4462,0 -0.81128,-0.34772 -0.81128,-0.78232c0,-0.43466 0.36508,-0.78235 0.81128,-0.78235c0.4462,0 0.81128,0.34769 0.81128,0.78235c0,0.4346 -0.36508,0.78232 -0.81128,0.78232zM26.96143,19.84863c-0.53313,-0.04059 -1.63994,0.56213 -1.94707,0.71277c-1.08363,0.54471 -2.5787,1.39655 -3.56383,2.07452c-0.06954,0.04636 -0.16225,0.11008 -0.23179,0.15067c-0.44041,0.28397 -0.90979,0.47519 -1.43133,0.5853c-2.86266,0.60843 -7.03494,0.67801 -7.03494,0.67801l-0.24338,0.0116c-0.18543,0.01154 -0.34769,-0.11594 -0.37087,-0.29556c-0.02897,-0.19702 0.1159,-0.37665 0.31872,-0.39404l6.20628,-0.59106c0.68379,-0.07532 1.22851,-0.71283 1.15318,-1.43137c-0.07533,-0.71854 -0.73595,-1.24588 -1.41974,-1.17047l-5.51669,-0.06958c-0.37667,-0.00583 -0.97933,-0.09854 -1.33861,-0.20279c-3.55804,-1.03732 -5.56305,-0.06375 -6.6293,0.38821c-0.23759,-0.39404 -0.68959,-0.64905 -1.19374,-0.61423l-2.38168,0.15643c-0.79389,0.05215 -1.39076,0.71274 -1.33281,1.47766l0.38246,5.28494c0.05215,0.76489 0.74174,1.33862 1.52984,1.28644l2.38168,-0.15646c0.50415,-0.03476 0.90979,-0.34189 1.08943,-0.76492l10.4539,0.452c1.16476,0.12173 2.25419,-0.0174 3.27988,-0.55624l0.30133,-0.15649l7.89837,-4.62427c0.38826,-0.22601 0.66641,-0.62012 0.678,-1.06049c0.02318,-0.52734 -0.28395,-1.11841 -1.03728,-1.17056z" fill="#0f1222" fill-opacity="1"></path></g><g><title>Path 45205</title><path d="M21.3344,21.49438c0.80542,-0.56213 2.45697,-1.46036 3.38995,-1.92975c0.28397,-0.13907 0.57947,-0.28394 0.89825,-0.39401c-0.40567,-0.27234 -0.84033,-0.284 -1.2923,-0.11014c-0.88663,0.35349 -2.52072,1.14157 -3.35522,1.59354c-0.00583,0.01166 -0.01163,0.02322 -0.01163,0.03482c0.05801,0.17386 0.10431,0.35352 0.12177,0.53891c0.01736,0.15067 0.01157,0.29559 0.0058,0.44043c0.07529,-0.05792 0.15643,-0.11594 0.24338,-0.1738z" fill="#0f1222" fill-opacity="1"></path></g><g><title>Path 45206</title><path d="M23.46751,18.53305c-0.40567,-0.26077 -0.83447,-0.27234 -1.27484,-0.09848c-0.55057,0.21442 -1.77322,0.61426 -2.31796,0.90396c0.23178,0.1449 0.44043,0.32458 0.62012,0.53317c0.0347,-0.02316 0.06952,-0.05219 0.11005,-0.07538l0.39984,-0.22012c0.5795,-0.31876 1.82541,-0.75919 2.4628,-1.04315z" fill="#0f1222" fill-opacity="1"></path></g></g><g><title>Group 76382</title><g><title>Group 76377</title><g><title>Group 76376</title><g><title>Group 76374</title><g><title>Path 45274</title><path d="M15.36972,17.61355v0v-1.44019v0l-6.08081,0.05154c-3.46936,0 -6.41895,-2.77213 -6.44092,-6.05322c-0.03223,-4.85358 3.88013,-5.75833 3.91968,-5.76688l0.0614,-0.01337v0l4.25232,3.33395v0h-2.11987c-0.64062,0 -1.24207,0.25046 -1.69336,0.70511c-0.45129,0.45462 -0.69727,1.05801 -0.6925,1.69888c0.00977,1.3056 1.09424,2.36777 2.41748,2.36777l5.2655,-0.04257c0.61267,-0.00494 1.11108,-0.50754 1.11108,-1.12021v-0.27432v0l4.2511,3.3342v0z" fill="#0f1222" fill-opacity="1"></path></g></g><g><title>Group 76375</title><g><title>Path 45275</title><path d="M12.27521,11.07992v0h-2.68054c-0.55396,0 -1.01611,-0.44144 -1.03015,-0.98407c-0.00708,-0.27525 0.0946,-0.53514 0.2865,-0.73203c0.19189,-0.1969 0.4491,-0.30542 0.72375,-0.30542h1.48206c0.1189,0 0.23547,0.04045 0.32874,0.11372l1.21838,0.95644c0.18127,0.14229 0.24976,0.37511 0.17444,0.5928c-0.0752,0.21785 -0.27283,0.35855 -0.50317,0.35855z" fill="#0f1222" fill-opacity="1"></path></g></g></g></g><g><title>Group 76381</title><g><title>Group 76379</title><g><title>Group 76378</title><g><title>Path 45276</title><path d="M21.17203,13.33264v0l-4.25244,-3.3338v0h2.12012c0.6405,0 1.24182,-0.25046 1.69324,-0.70508c0.45129,-0.45468 0.69714,-1.05804 0.6925,-1.69904c-0.00977,-1.30551 -1.09424,-2.36765 -2.41748,-2.36765l-5.20642,-0.00613v0h-0.00134c-0.31201,0 -0.60547,0.12146 -0.82605,0.34183c-0.22107,0.22092 -0.3429,0.5145 -0.3429,0.82697v0.27432v0l-4.2511,-3.33411v0l4.2511,-3.21942v0v1.44031v0l6.22388,-0.05002c3.39197,0 6.276,2.7713 6.29797,6.05173c0.03223,4.85342 -3.88013,5.75833 -3.91968,5.76688z" fill="#0f1222" fill-opacity="1"></path></g></g></g><g><title>Group 76380</title><g><title>Path 45277</title><path d="M18.05185,8.62361v0h-1.48206c-0.11865,0 -0.23535,-0.0403 -0.32874,-0.11359l-1.21851,-0.95644c-0.18115,-0.14229 -0.24976,-0.37508 -0.17432,-0.5928c0.0752,-0.21786 0.27271,-0.35854 0.50342,-0.35854h2.68018c0.5542,0 1.01636,0.44142 1.03015,0.98405c0.0072,0.27524 -0.0946,0.53514 -0.28638,0.73204c-0.19189,0.19688 -0.44885,0.30527 -0.72375,0.30527z" fill="#0f1222" fill-opacity="1"></path></g></g></g></g></g></svg>