<svg xmlns="http://www.w3.org/2000/svg" width="26" height="28" viewBox="0 0 26 28"><g><g><path fill="#0f1222" d="M10.26 7.928c.066.948 1.149 1.466 1.931.928a1.04 1.04 0 0 1 1.628.856v3.44h2.577c-.457-1.869 1.024-3.69 2.996-3.553 1.734.12 3.02 1.79 2.587 3.554h2.604c2.178-3.294-.016-8.06-4.26-8.277.48-2.535-1.475-4.872-4.037-4.872-.925 0-1.78.308-2.467.826v5.135a1.04 1.04 0 0 1-1.628.856c-.837-.576-2.003.06-1.93 1.107z"/></g><g><path fill="#0f1222" d="M4.935 13.153c.836 0 1.33.939.856 1.628-.573.833.056 2.002 1.108 1.93.95-.066 1.466-1.15.928-1.93a1.04 1.04 0 0 1 .856-1.628h3.496v-2.524c-1.768.434-3.435-.857-3.555-2.587-.136-1.963 1.678-3.455 3.555-2.995V.83c-2.943-2.218-7.16.315-6.513 3.991-4.27.227-6.432 5.003-4.234 8.332z"/></g><g><path fill="#0f1222" d="M24.555 14.793h-3.492a1.04 1.04 0 0 1-.856-1.628c.538-.781.02-1.864-.929-1.93-1.051-.073-1.681 1.096-1.108 1.93a1.04 1.04 0 0 1-.855 1.628h-3.496v2.522c1.872-.458 3.69 1.027 3.554 2.995-.12 1.731-1.787 3.021-3.554 2.587v4.273c2.943 2.218 7.159-.314 6.513-3.991 4.168-.222 6.484-4.898 4.223-8.386z"/></g><g><path fill="#0f1222" d="M15.737 20.196c.073-1.046-1.093-1.683-1.93-1.107a1.04 1.04 0 0 1-1.628-.856v-3.44h-2.58c.447 1.816-.936 3.56-2.794 3.56-1.874 0-3.228-1.766-2.788-3.56H1.432c-2.196 3.328-.04 8.111 4.243 8.331-.48 2.535 1.475 4.872 4.036 4.872.926 0 1.78-.308 2.468-.826v-5.19c0-.835.939-1.33 1.628-.855.78.537 1.864.02 1.93-.929z"/></g></g></svg>