<svg xmlns="http://www.w3.org/2000/svg" xmlns:xlink="http://www.w3.org/1999/xlink" width="700" height="806" viewBox="0 0 700 806">
  <defs>
    <style>
      .cls-1 {
        mix-blend-mode: screen;
        fill: url(#radial-gradient);
      }

      .cls-1, .cls-14 {
        isolation: isolate;
      }

      .cls-2 {
        fill: #020202;
      }

      .cls-3 {
        fill: url(#linear-gradient);
      }

      .cls-4 {
        fill: url(#linear-gradient-3);
      }

      .cls-5 {
        fill: url(#linear-gradient-5);
      }

      .cls-6 {
        fill: #023b96;
      }

      .cls-7 {
        fill: #002469;
      }

      .cls-8 {
        fill: #00a4ff;
      }

      .cls-9 {
        fill: #d4ecff;
      }

      .cls-10 {
        fill: #173d7a;
      }

      .cls-11 {
        fill: none;
        stroke: #fff;
      }

      .cls-12 {
        fill: #fff;
      }

      .cls-13 {
        fill: #33a1ff;
      }

      .cls-15 {
        fill: url(#linear-gradient-23);
      }

      .cls-16 {
        fill: url(#linear-gradient-24);
      }

      .cls-17 {
        fill: url(#linear-gradient-31);
      }

      .cls-18 {
        fill: url(#linear-gradient-32);
      }

      .cls-19 {
        fill: url(#linear-gradient-36);
      }
    </style>
    <radialGradient id="radial-gradient" cx="0.5" cy="0.5" r="0.5" gradientUnits="objectBoundingBox">
      <stop offset="0" stop-color="#002aff"/>
      <stop offset="0.038" stop-color="#0026ea"/>
      <stop offset="0.146" stop-color="#001db3"/>
      <stop offset="0.258" stop-color="#001583"/>
      <stop offset="0.372" stop-color="#000f5b"/>
      <stop offset="0.488" stop-color="#00093a"/>
      <stop offset="0.606" stop-color="#000520"/>
      <stop offset="0.728" stop-color="#00020e"/>
      <stop offset="0.856" stop-color="#000003"/>
      <stop offset="1"/>
    </radialGradient>
    <linearGradient id="linear-gradient" x1="0.5" x2="0.5" y2="1" gradientUnits="objectBoundingBox">
      <stop offset="0" stop-color="#36c9ff"/>
      <stop offset="1" stop-color="#005ef7"/>
    </linearGradient>
    <linearGradient id="linear-gradient-3" x1="0.5" y1="1" x2="0.5" gradientUnits="objectBoundingBox">
      <stop offset="0" stop-color="#33a1ff"/>
      <stop offset="1" stop-color="#0043c3"/>
    </linearGradient>
    <linearGradient id="linear-gradient-5" y1="0" y2="1" xlink:href="#linear-gradient-3"/>
    <linearGradient id="linear-gradient-23" x1="0" y1="0.5" x2="1" y2="0.5" xlink:href="#linear-gradient-3"/>
    <linearGradient id="linear-gradient-24" x1="0.429" y1="0.074" x2="0.572" y2="0.931" xlink:href="#linear-gradient-3"/>
    <linearGradient id="linear-gradient-31" x1="0.398" y1="0.156" x2="0.666" y2="1.059" xlink:href="#linear-gradient-3"/>
    <linearGradient id="linear-gradient-32" x1="0.445" y1="0.127" x2="0.557" y2="0.884" xlink:href="#linear-gradient-3"/>
    <linearGradient id="linear-gradient-36" x1="0.482" y1="0.095" x2="0.518" y2="0.907" xlink:href="#linear-gradient-3"/>
  </defs>
  <g id="Illustration_1" data-name="Illustration 1" transform="translate(-882.999 -786)">
    <ellipse id="Ellipse_6581" data-name="Ellipse 6581" class="cls-1" cx="350" cy="350" rx="350" ry="350" transform="translate(882.999 892)"/>
    <g id="Group_77285" data-name="Group 77285" transform="translate(1073.078 997.274)">
      <g id="Group_77281" data-name="Group 77281">
        <g id="Group_77276" data-name="Group 77276">
          <path id="Path_47334" data-name="Path 47334" class="cls-2" d="M550.135,361.8,374.729,261.778c-6.417-3.7-5.613-10.173,1.8-14.45l100.924-58.268c7.408-4.277,18.612-4.743,25.029-1.037L677.884,288.04c6.417,3.7,5.613,10.173-1.8,14.45L575.164,360.758C567.756,365.035,556.549,365.5,550.135,361.8Z" transform="translate(-370.396 30.812)"/>
          <path id="Path_47335" data-name="Path 47335" class="cls-3" d="M670.328,361.042h0V182.011L550.06,249.947,540.314,429.9l19.616,1.458,104.306-61.674C668.507,367.212,670.569,364.015,670.328,361.042Z" transform="translate(-358.544 -72.787)"/>
          <path id="Path_47336" data-name="Path 47336" class="cls-3" d="M366.765,143.984V324.04c-.182,2.507,1.216,4.925,4.3,6.706l176.991,102.5s5.688.107,10.031,0L559.894,250.8Z" transform="translate(-366.733 -74.567)"/>
          <path id="Path_47337" data-name="Path 47337" class="cls-4" d="M429.377,169.706c5.53-2.368,13.536-2.238,20,.229v185.08h-20Z" transform="translate(-248.026 3.673)"/>
          <path id="Path_47338" data-name="Path 47338" class="cls-3" d="M546.482,284.989,371.076,184.969c-6.416-3.7-5.611-10.172,1.8-14.448L473.8,112.249c7.407-4.277,18.612-4.74,25.028-1.037L674.232,211.23c6.416,3.706,5.611,10.175-1.8,14.451L571.51,283.949C564.1,288.226,552.9,288.692,546.482,284.989Z" transform="translate(-366.744 -108.712)"/>
          <path id="Path_47339" data-name="Path 47339" class="cls-5" d="M672.436,175.17,571.51,233.438c-7.406,4.277-18.612,4.743-25.028,1.037L371.075,134.457a9.69,9.69,0,0,1-3.2-2.84c-2.2,3.547-1.2,7.395,3.2,9.937l175.406,100.02c6.416,3.7,17.622,3.237,25.028-1.039l100.927-58.268c5.753-3.324,7.5-7.965,5-11.611A14.026,14.026,0,0,1,672.436,175.17Z" transform="translate(-366.744 -65.298)"/>
          <g id="Group_77275" data-name="Group 77275" transform="translate(65.891 32.359)">
            <path id="Path_47340" data-name="Path 47340" class="cls-6" d="M508.31,223.269l-116.782-67.7c-3-1.734-2.626-4.76.84-6.764L439.6,121.544c3.466-2,8.709-2.218,11.712-.486l116.782,67.7c3,1.731,2.626,4.76-.84,6.761l-47.228,27.266C516.556,224.784,511.313,225,508.31,223.269Z" transform="translate(-389.501 -119.888)"/>
            <g id="Group_77274" data-name="Group 77274" transform="translate(48.715 29.88)">
              <path id="Path_47341" data-name="Path 47341" class="cls-7" d="M413.372,139.053l-6.767-3.909c-.414-.237-.362-.657.116-.935l6.535-3.773a1.807,1.807,0,0,1,1.621-.067l6.767,3.909c.414.237.362.657-.116.935l-6.535,3.773A1.807,1.807,0,0,1,413.372,139.053Z" transform="translate(-406.326 -130.208)"/>
              <path id="Path_47342" data-name="Path 47342" class="cls-7" d="M421.18,143.544l-6.767-3.909c-.414-.24-.362-.657.116-.935l6.535-3.773a1.8,1.8,0,0,1,1.621-.067l6.767,3.906c.414.24.362.66-.116.935l-6.535,3.773A1.808,1.808,0,0,1,421.18,143.544Z" transform="translate(-391.526 -121.698)"/>
              <path id="Path_47343" data-name="Path 47343" class="cls-7" d="M428.99,148.031l-6.77-3.906c-.414-.24-.362-.66.119-.935l6.532-3.773a1.8,1.8,0,0,1,1.621-.067l6.767,3.906c.417.24.365.657-.116.935l-6.535,3.773A1.792,1.792,0,0,1,428.99,148.031Z" transform="translate(-376.726 -113.188)"/>
              <path id="Path_47344" data-name="Path 47344" class="cls-7" d="M436.8,152.522l-6.77-3.909c-.414-.237-.362-.657.119-.935l6.532-3.773a1.807,1.807,0,0,1,1.621-.067l6.767,3.909c.417.237.365.657-.116.935l-6.535,3.773A1.8,1.8,0,0,1,436.8,152.522Z" transform="translate(-361.926 -104.678)"/>
            </g>
            <path id="Path_47345" data-name="Path 47345" class="cls-5" d="M391.528,155.574l.139.078a7.819,7.819,0,0,1,.7-.481L439.6,127.9c3.466-2,8.709-2.218,11.712-.484l116.646,67.614c2.765-1.98,2.91-4.676.136-6.28l-116.782-67.7c-3-1.731-8.246-1.514-11.712.486L392.368,148.81C388.9,150.814,388.526,153.839,391.528,155.574Z" transform="translate(-389.501 -119.888)"/>
          </g>
        </g>
        <g id="Group_77278" data-name="Group 77278" transform="translate(217.706 171.289)">
          <path id="Path_47346" data-name="Path 47346" class="cls-6" d="M448.7,248.484l66.4-38.014c3.735-2.16,6.767-7.945,6.767-12.928V173.8c0-4.98-3.031-7.27-6.767-5.113L448.7,206.7c-3.738,2.157-6.767,7.945-6.767,12.925V243.37C441.933,248.354,444.962,250.644,448.7,248.484Z" transform="translate(-441.933 -167.871)"/>
          <path id="Path_47347" data-name="Path 47347" class="cls-5" d="M517.272,167.9a6.622,6.622,0,0,1,1.7,4.94v23.746c0,4.98-3.029,10.768-6.767,12.925l-66.4,38.017a4.886,4.886,0,0,1-3.286.715c1.239,1.17,3.037,1.346,5.067.174l66.4-38.014c3.735-2.157,6.767-7.945,6.767-12.928V173.733C520.752,170.351,519.339,168.254,517.272,167.9Z" transform="translate(-440.82 -167.807)"/>
          <g id="Group_77277" data-name="Group 77277" transform="translate(25.263 28.93)">
            <path id="Path_47348" data-name="Path 47348" class="cls-7" d="M452.132,196.056l6.092-3.518a3.531,3.531,0,0,0,1.474-2.817v-6.506c0-1.086-.66-1.584-1.474-1.115l-6.092,3.518a3.531,3.531,0,0,0-1.474,2.817v6.506C450.658,196.027,451.318,196.525,452.132,196.056Z" transform="translate(-450.658 -170.165)"/>
            <path id="Path_47349" data-name="Path 47349" class="cls-8" d="M459.166,191.995l6.092-3.518a3.531,3.531,0,0,0,1.474-2.817v-6.506c0-1.086-.66-1.584-1.474-1.115l-6.092,3.518a3.531,3.531,0,0,0-1.474,2.817v6.506C457.692,191.966,458.352,192.464,459.166,191.995Z" transform="translate(-437.326 -177.862)"/>
          </g>
        </g>
        <g id="Group_77280" data-name="Group 77280" transform="translate(217.706 245.499)">
          <path id="Path_47350" data-name="Path 47350" class="cls-6" d="M448.7,274.114,515.1,236.1c3.735-2.157,6.767-7.942,6.767-12.925V199.426c0-4.983-3.031-7.27-6.767-5.113L448.7,232.33c-3.738,2.157-6.767,7.942-6.767,12.925V269C441.933,273.981,444.962,276.271,448.7,274.114Z" transform="translate(-441.933 -193.501)"/>
          <path id="Path_47351" data-name="Path 47351" class="cls-5" d="M517.272,193.533a6.63,6.63,0,0,1,1.7,4.943v23.743c0,4.983-3.029,10.771-6.767,12.928l-66.4,38.017a4.885,4.885,0,0,1-3.286.715c1.239,1.17,3.037,1.346,5.067.174l66.4-38.017c3.735-2.157,6.767-7.945,6.767-12.925V199.364C520.752,195.983,519.339,193.886,517.272,193.533Z" transform="translate(-440.82 -193.439)"/>
          <g id="Group_77279" data-name="Group 77279" transform="translate(25.263 28.93)">
            <path id="Path_47352" data-name="Path 47352" class="cls-8" d="M452.132,221.686l6.092-3.518a3.531,3.531,0,0,0,1.474-2.817v-6.506c0-1.086-.66-1.584-1.474-1.115l-6.092,3.518a3.531,3.531,0,0,0-1.474,2.817v6.506C450.658,221.657,451.318,222.155,452.132,221.686Z" transform="translate(-450.658 -195.795)"/>
            <path id="Path_47353" data-name="Path 47353" class="cls-8" d="M459.166,217.625l6.092-3.518a3.531,3.531,0,0,0,1.474-2.817v-6.506c0-1.086-.66-1.584-1.474-1.115l-6.092,3.518A3.531,3.531,0,0,0,457.692,210v6.506C457.692,217.6,458.352,218.094,459.166,217.625Z" transform="translate(-437.326 -203.492)"/>
          </g>
        </g>
      </g>
      <g id="Group_77282" data-name="Group 77282" transform="translate(15.022 103.251)">
        <path id="Path_47355" data-name="Path 47355" class="cls-5" d="M519.475,258.475,375.082,175.109a7.54,7.54,0,0,1-3.15-6.017V147.131c0-2.319,1.41-3.385,3.15-2.38l144.393,83.366a7.545,7.545,0,0,1,3.15,6.017v21.962C522.625,258.414,521.215,259.48,519.475,258.475Z" transform="translate(-371.932 -144.372)"/>
        <path id="Path_47356" data-name="Path 47356" class="cls-9" d="M399.519,170.877l-21.548-12.439a7.331,7.331,0,0,1-3.058-5.846h0c0-2.253,1.369-3.286,3.058-2.311l21.548,12.439a7.326,7.326,0,0,1,3.061,5.846h0C402.58,170.819,401.21,171.853,399.519,170.877Z" transform="translate(-366.28 -133.868)"/>
        <path id="Path_47357" data-name="Path 47357" class="cls-10" d="M394.377,163.726c0,2.253-1.581,3.168-3.529,2.041a7.806,7.806,0,0,1-3.533-6.118c0-2.253,1.581-3.165,3.533-2.038A7.81,7.81,0,0,1,394.377,163.726Z" transform="translate(-342.774 -120.194)"/>
        <path id="Path_47358" data-name="Path 47358" class="cls-10" d="M398.683,166.213c0,2.253-1.581,3.165-3.533,2.038a7.8,7.8,0,0,1-3.532-6.115c0-2.253,1.581-3.168,3.532-2.041A7.806,7.806,0,0,1,398.683,166.213Z" transform="translate(-334.618 -115.485)"/>
        <path id="Path_47359" data-name="Path 47359" class="cls-9" d="M402.986,168.7c0,2.253-1.581,3.168-3.533,2.041a7.806,7.806,0,0,1-3.532-6.118c0-2.253,1.581-3.165,3.532-2.038A7.8,7.8,0,0,1,402.986,168.7Z" transform="translate(-326.462 -110.776)"/>
        <path id="Path_47360" data-name="Path 47360" class="cls-10" d="M407.289,171.182c0,2.253-1.581,3.165-3.533,2.038a7.813,7.813,0,0,1-3.532-6.118c0-2.25,1.584-3.165,3.532-2.038A7.806,7.806,0,0,1,407.289,171.182Z" transform="translate(-318.306 -106.067)"/>
        <path id="Path_47361" data-name="Path 47361" class="cls-10" d="M426.826,190.909l-7.259-4.193a4.7,4.7,0,0,1-1.96-3.75v-7.679c0-1.445.877-2.111,1.96-1.485L426.826,178a4.7,4.7,0,0,1,1.963,3.75v7.679C428.789,190.869,427.912,191.535,426.826,190.909Z" transform="translate(-285.358 -89.034)"/>
        <path id="Path_47407" data-name="Path 47407" class="cls-11" d="M519.475,258.475,375.082,175.109a7.54,7.54,0,0,1-3.15-6.017V147.131c0-2.319,1.41-3.385,3.15-2.38l144.393,83.366a7.545,7.545,0,0,1,3.15,6.017v21.962C522.625,258.414,521.215,259.48,519.475,258.475Z" transform="translate(-371.932 -144.372)"/>
      </g>
      <g id="Group_77283" data-name="Group 77283" transform="translate(15.022 154.761)">
        <path id="Path_47363" data-name="Path 47363" class="cls-5" d="M519.475,276.265,375.082,192.9a7.54,7.54,0,0,1-3.15-6.017V164.921c0-2.319,1.41-3.385,3.15-2.38l144.393,83.366a7.542,7.542,0,0,1,3.15,6.02v21.959C522.625,276.2,521.215,277.27,519.475,276.265Z" transform="translate(-371.932 -162.162)"/>
        <path id="Path_47364" data-name="Path 47364" class="cls-9" d="M399.519,188.667l-21.548-12.442a7.321,7.321,0,0,1-3.058-5.843h0c0-2.253,1.369-3.286,3.058-2.311l21.548,12.439a7.326,7.326,0,0,1,3.061,5.846h0C402.58,188.609,401.21,189.643,399.519,188.667Z" transform="translate(-366.28 -151.658)"/>
        <path id="Path_47365" data-name="Path 47365" class="cls-12" d="M394.377,181.519c0,2.25-1.581,3.165-3.529,2.038a7.806,7.806,0,0,1-3.533-6.118c0-2.253,1.581-3.165,3.533-2.038A7.81,7.81,0,0,1,394.377,181.519Z" transform="translate(-342.774 -137.984)"/>
        <path id="Path_47366" data-name="Path 47366" class="cls-10" d="M398.683,184c0,2.253-1.581,3.165-3.533,2.038a7.806,7.806,0,0,1-3.532-6.118c0-2.25,1.581-3.165,3.532-2.038A7.806,7.806,0,0,1,398.683,184Z" transform="translate(-334.618 -133.276)"/>
        <path id="Path_47367" data-name="Path 47367" class="cls-9" d="M402.986,186.485c0,2.253-1.581,3.168-3.533,2.041a7.806,7.806,0,0,1-3.532-6.118c0-2.253,1.581-3.165,3.532-2.038A7.8,7.8,0,0,1,402.986,186.485Z" transform="translate(-326.462 -128.566)"/>
        <path id="Path_47368" data-name="Path 47368" class="cls-10" d="M407.289,188.972c0,2.253-1.581,3.165-3.533,2.038a7.813,7.813,0,0,1-3.532-6.118c0-2.253,1.584-3.165,3.532-2.038A7.806,7.806,0,0,1,407.289,188.972Z" transform="translate(-318.306 -123.857)"/>
        <path id="Path_47369" data-name="Path 47369" class="cls-10" d="M426.826,208.7l-7.259-4.193a4.7,4.7,0,0,1-1.96-3.75v-7.679c0-1.448.877-2.111,1.96-1.485l7.259,4.193a4.7,4.7,0,0,1,1.963,3.75v7.679C428.789,208.659,427.912,209.325,426.826,208.7Z" transform="translate(-285.358 -106.824)"/>
        <path id="Path_47406" data-name="Path 47406" class="cls-11" d="M519.475,276.265,375.082,192.9a7.54,7.54,0,0,1-3.15-6.017V164.921c0-2.319,1.41-3.385,3.15-2.38l144.393,83.366a7.542,7.542,0,0,1,3.15,6.02v21.959C522.625,276.2,521.215,277.27,519.475,276.265Z" transform="translate(-371.932 -162.162)"/>
      </g>
      <g id="Group_77284" data-name="Group 77284" transform="translate(15.022 206.271)">
        <path id="Path_47371" data-name="Path 47371" class="cls-5" d="M519.475,294.055,375.082,210.689a7.54,7.54,0,0,1-3.15-6.017V182.711c0-2.319,1.41-3.385,3.15-2.38L519.475,263.7a7.54,7.54,0,0,1,3.15,6.017v21.962C522.625,293.994,521.215,295.06,519.475,294.055Z" transform="translate(-371.932 -179.952)"/>
        <path id="Path_47372" data-name="Path 47372" class="cls-9" d="M399.519,206.457l-21.548-12.442a7.321,7.321,0,0,1-3.058-5.843h0c0-2.253,1.369-3.286,3.058-2.311L399.519,198.3a7.326,7.326,0,0,1,3.061,5.846h0C402.58,206.4,401.21,207.433,399.519,206.457Z" transform="translate(-366.28 -169.448)"/>
        <path id="Path_47373" data-name="Path 47373" class="cls-12" d="M394.377,199.306c0,2.253-1.581,3.168-3.529,2.041a7.806,7.806,0,0,1-3.533-6.118c0-2.253,1.581-3.165,3.533-2.038A7.81,7.81,0,0,1,394.377,199.306Z" transform="translate(-342.774 -155.774)"/>
        <path id="Path_47374" data-name="Path 47374" class="cls-10" d="M398.683,201.793c0,2.253-1.581,3.165-3.533,2.038a7.806,7.806,0,0,1-3.532-6.118c0-2.253,1.581-3.165,3.532-2.038A7.806,7.806,0,0,1,398.683,201.793Z" transform="translate(-334.618 -151.066)"/>
        <path id="Path_47375" data-name="Path 47375" class="cls-9" d="M402.986,204.275c0,2.253-1.581,3.168-3.533,2.038a7.8,7.8,0,0,1-3.532-6.115c0-2.253,1.581-3.165,3.532-2.038A7.8,7.8,0,0,1,402.986,204.275Z" transform="translate(-326.462 -146.356)"/>
        <path id="Path_47376" data-name="Path 47376" class="cls-10" d="M407.289,206.762c0,2.253-1.581,3.165-3.533,2.038a7.814,7.814,0,0,1-3.532-6.118c0-2.253,1.584-3.165,3.532-2.038A7.806,7.806,0,0,1,407.289,206.762Z" transform="translate(-318.306 -141.647)"/>
        <path id="Path_47377" data-name="Path 47377" class="cls-10" d="M426.826,226.489l-7.259-4.193a4.7,4.7,0,0,1-1.96-3.75v-7.679c0-1.445.877-2.111,1.96-1.485l7.259,4.19a4.705,4.705,0,0,1,1.963,3.753V225C428.789,226.449,427.912,227.115,426.826,226.489Z" transform="translate(-285.358 -124.614)"/>
        <path id="Path_47405" data-name="Path 47405" class="cls-11" d="M519.475,294.055,375.082,210.689a7.54,7.54,0,0,1-3.15-6.017V182.711c0-2.319,1.41-3.385,3.15-2.38L519.475,263.7a7.54,7.54,0,0,1,3.15,6.017v21.962C522.625,293.994,521.215,295.06,519.475,294.055Z" transform="translate(-371.932 -179.952)"/>
      </g>
    </g>
    <g id="Group_77302" data-name="Group 77302" transform="translate(1182.079 911.451)">
      <g id="Group_77289" data-name="Group 77289">
        <path id="Path_47378" data-name="Path 47378" class="cls-5" d="M410.532,197.377a2.312,2.312,0,0,1-2.311-2.313V99.838a2.312,2.312,0,1,1,4.624,0v95.225A2.313,2.313,0,0,1,410.532,197.377Z" transform="translate(-397.128 -44.094)"/>
        <g id="Group_77288" data-name="Group 77288">
          <g id="Group_77286" data-name="Group 77286" transform="translate(5.132 49.756)">
            <rect id="Rectangle_25816" data-name="Rectangle 25816" class="cls-13" width="16.544" height="35.7" transform="translate(0.001)"/>
            <path id="Path_47379" data-name="Path 47379" class="cls-13" d="M420.283,115.09a12.93,12.93,0,0,1-11.7,0c-3.231-1.865-3.231-4.89,0-6.755a12.93,12.93,0,0,1,11.7,0C423.514,110.2,423.514,113.225,420.283,115.09Z" transform="translate(-406.162 -76.012)"/>
          </g>
          <g id="Group_77287" data-name="Group 77287">
            <rect id="Rectangle_25817" data-name="Rectangle 25817" class="cls-8" width="26.808" height="55.993"/>
            <path id="Path_47380" data-name="Path 47380" class="cls-5" d="M406.162,99.373v12.083a21.4,21.4,0,0,0,16.545,0V99.373A21.4,21.4,0,0,0,406.162,99.373Z" transform="translate(-401.031 -43.745)"/>
            <path id="Path_47381" data-name="Path 47381" class="cls-8" d="M427.273,108.949c-5.235,3.023-13.722,3.023-18.956,0s-5.235-7.922,0-10.945,13.721-3.023,18.954,0S432.5,105.926,427.273,108.949Z" transform="translate(-404.389 -47.483)"/>
          </g>
        </g>
      </g>
      <g id="Group_77293" data-name="Group 77293" transform="translate(22.608 13.5)">
        <path id="Path_47382" data-name="Path 47382" class="cls-5" d="M418.341,202.037a2.314,2.314,0,0,1-2.313-2.314V104.5a2.313,2.313,0,0,1,4.627,0v95.225A2.313,2.313,0,0,1,418.341,202.037Z" transform="translate(-404.938 -48.756)"/>
        <g id="Group_77292" data-name="Group 77292">
          <g id="Group_77290" data-name="Group 77290" transform="translate(5.131 49.756)">
            <rect id="Rectangle_25818" data-name="Rectangle 25818" class="cls-13" width="16.544" height="35.7" transform="translate(0.001)"/>
            <path id="Path_47383" data-name="Path 47383" class="cls-13" d="M428.091,119.75a12.912,12.912,0,0,1-11.7,0c-3.231-1.865-3.231-4.888,0-6.752a12.929,12.929,0,0,1,11.7,0C431.322,114.862,431.322,117.885,428.091,119.75Z" transform="translate(-413.97 -80.674)"/>
          </g>
          <g id="Group_77291" data-name="Group 77291">
            <rect id="Rectangle_25819" data-name="Rectangle 25819" class="cls-8" width="26.808" height="55.993"/>
            <path id="Path_47384" data-name="Path 47384" class="cls-5" d="M413.97,104.036v12.08a21.4,21.4,0,0,0,16.545,0v-12.08A21.4,21.4,0,0,0,413.97,104.036Z" transform="translate(-408.839 -48.406)"/>
            <path id="Path_47385" data-name="Path 47385" class="cls-8" d="M435.081,113.609c-5.235,3.023-13.722,3.023-18.957,0s-5.235-7.922,0-10.945,13.722-3.02,18.957,0S440.316,110.587,435.081,113.609Z" transform="translate(-412.197 -52.145)"/>
          </g>
        </g>
      </g>
      <g id="Group_77297" data-name="Group 77297" transform="translate(45.216 27)">
        <path id="Path_47386" data-name="Path 47386" class="cls-5" d="M426.15,206.7a2.311,2.311,0,0,1-2.313-2.313V109.162a2.313,2.313,0,0,1,4.627,0v95.225A2.313,2.313,0,0,1,426.15,206.7Z" transform="translate(-412.744 -53.417)"/>
        <g id="Group_77296" data-name="Group 77296">
          <g id="Group_77294" data-name="Group 77294" transform="translate(5.131 49.756)">
            <rect id="Rectangle_25820" data-name="Rectangle 25820" class="cls-13" width="16.544" height="35.7" transform="translate(0.001)"/>
            <path id="Path_47387" data-name="Path 47387" class="cls-13" d="M435.9,124.415a12.93,12.93,0,0,1-11.7,0c-3.231-1.865-3.231-4.89,0-6.755a12.929,12.929,0,0,1,11.7,0C439.131,119.524,439.131,122.55,435.9,124.415Z" transform="translate(-421.778 -85.337)"/>
          </g>
          <g id="Group_77295" data-name="Group 77295">
            <rect id="Rectangle_25821" data-name="Rectangle 25821" class="cls-8" width="26.808" height="55.993"/>
            <path id="Path_47388" data-name="Path 47388" class="cls-5" d="M421.778,108.7v12.083a21.4,21.4,0,0,0,16.544,0V108.7A21.4,21.4,0,0,0,421.778,108.7Z" transform="translate(-416.647 -53.069)"/>
            <path id="Path_47389" data-name="Path 47389" class="cls-8" d="M442.889,118.274c-5.235,3.02-13.722,3.02-18.957,0s-5.235-7.922,0-10.945,13.722-3.023,18.957,0S448.124,115.251,442.889,118.274Z" transform="translate(-420.006 -56.808)"/>
          </g>
        </g>
      </g>
      <g id="Group_77301" data-name="Group 77301" transform="translate(67.824 40.499)">
        <path id="Path_47390" data-name="Path 47390" class="cls-5" d="M433.958,211.362a2.313,2.313,0,0,1-2.313-2.313V113.824a2.313,2.313,0,0,1,4.627,0v95.225A2.311,2.311,0,0,1,433.958,211.362Z" transform="translate(-420.554 -58.08)"/>
        <g id="Group_77300" data-name="Group 77300">
          <g id="Group_77298" data-name="Group 77298" transform="translate(5.132 49.756)">
            <rect id="Rectangle_25822" data-name="Rectangle 25822" class="cls-13" width="16.544" height="35.7"/>
            <path id="Path_47391" data-name="Path 47391" class="cls-13" d="M443.706,129.076a12.93,12.93,0,0,1-11.7,0c-3.228-1.865-3.228-4.888,0-6.752a12.912,12.912,0,0,1,11.7,0C446.937,124.189,446.937,127.211,443.706,129.076Z" transform="translate(-429.586 -90)"/>
          </g>
          <g id="Group_77299" data-name="Group 77299">
            <rect id="Rectangle_25823" data-name="Rectangle 25823" class="cls-8" width="26.808" height="55.993"/>
            <path id="Path_47392" data-name="Path 47392" class="cls-5" d="M429.586,113.359v12.083a21.4,21.4,0,0,0,16.545,0V113.359A21.426,21.426,0,0,0,429.586,113.359Z" transform="translate(-424.455 -57.731)"/>
            <path id="Path_47393" data-name="Path 47393" class="cls-8" d="M450.7,122.936c-5.235,3.023-13.722,3.023-18.957,0s-5.235-7.922,0-10.945,13.721-3.023,18.957,0S455.932,119.913,450.7,122.936Z" transform="translate(-427.814 -61.471)"/>
          </g>
        </g>
      </g>
    </g>
    <g id="cloud" transform="translate(1105.938 786)">
      <g id="Group_77304" data-name="Group 77304">
        <g id="Group_77303" data-name="Group 77303" transform="translate(14.477)">
          <path id="Path_47394" data-name="Path 47394" class="cls-3" d="M440.814,47.184c-.46-.217-.912-.405-1.367-.605q-1.646-.721-3.255-1.306c-.466-.165-.929-.339-1.387-.486q-1.881-.612-3.7-1.037c-.208-.049-.423-.119-.631-.162l-.142-.038c-.281-.058-.544-.058-.825-.11a35.913,35.913,0,0,0-4.062-.553c-.567-.041-1.112-.023-1.671-.032a29.192,29.192,0,0,0-3.075.075c-.591.049-1.164.133-1.74.217a26.578,26.578,0,0,0-2.727.55c-.556.145-1.1.3-1.639.475a24.2,24.2,0,0,0-2.568,1.045c-.33.156-.7.246-1.022.417q-.443.235-.877.486L383.093,61.829c.6-.35,1.257-.6,1.888-.9a24.364,24.364,0,0,1,2.589-1.057c.53-.177,1.074-.324,1.621-.466a26.3,26.3,0,0,1,2.745-.556c.57-.084,1.144-.168,1.729-.217,1-.084,2.035-.093,3.081-.075.556.012,1.1-.006,1.671.035a35.59,35.59,0,0,1,4.045.547c.333.064.651.081.987.153.2.043.411.11.614.156q1.829.426,3.718,1.042c.458.148.921.319,1.384.486q1.611.578,3.257,1.306c.455.2.906.388,1.364.6,1.523.718,3.061,1.5,4.621,2.4a75.188,75.188,0,0,1,8.628,5.849l27.029-15.7a75.054,75.054,0,0,0-8.628-5.849C443.874,48.681,442.337,47.9,440.814,47.184Z" transform="translate(-383.093 -22.284)"/>
          <path id="Path_47395" data-name="Path 47395" class="cls-3" d="M614.849,236.638c-.041-.556-.1-1.115-.156-1.671q-.187-1.98-.481-3.981c-.084-.588-.168-1.173-.266-1.76q-.391-2.324-.912-4.656c-.07-.316-.125-.628-.2-.947-.434-1.859-.938-3.724-1.491-5.588-.154-.518-.327-1.034-.489-1.552-.434-1.381-.892-2.756-1.387-4.132q-.326-.916-.672-1.827-.8-2.111-1.694-4.207c-.2-.463-.379-.929-.585-1.39-.064-.151-.122-.3-.188-.452-.223-.5-.492-.987-.721-1.485-.753-1.627-1.529-3.243-2.357-4.841-.414-.8-.848-1.578-1.28-2.363q-1.155-2.119-2.394-4.19c-.481-.8-.964-1.592-1.462-2.383-.869-1.372-1.766-2.716-2.684-4.048-.5-.718-.982-1.442-1.494-2.148-1.1-1.523-2.244-3-3.408-4.456-.307-.385-.588-.8-.9-1.176-.058-.07-.119-.13-.177-.2q-2.428-2.945-5.021-5.658c-.452-.475-.921-.915-1.381-1.378-1.306-1.323-2.632-2.6-3.99-3.825-.611-.553-1.225-1.083-1.847-1.613-1.312-1.123-2.644-2.186-4-3.205-.585-.443-1.164-.9-1.755-1.323-1.928-1.375-3.88-2.672-5.869-3.822a57.908,57.908,0,0,0-8.631-4.117c-.524-2.736-1.15-5.481-1.85-8.232-.232-.918-.521-1.839-.776-2.756-.5-1.836-1.011-3.669-1.59-5.5-.342-1.086-.735-2.166-1.1-3.249-.564-1.665-1.129-3.327-1.755-4.983-.431-1.149-.9-2.29-1.361-3.437-.634-1.581-1.274-3.159-1.96-4.728-.185-.429-.344-.863-.533-1.291-.237-.527-.524-1.042-.764-1.569q-1.763-3.848-3.712-7.627c-.388-.75-.756-1.5-1.155-2.25q-2.5-4.686-5.273-9.225c-.379-.623-.788-1.228-1.175-1.844q-2.324-3.7-4.818-7.27c-.565-.808-1.126-1.616-1.706-2.415-2.033-2.809-4.114-5.571-6.292-8.226-.046-.058-.087-.122-.133-.18l-.038-.041c-.084-.1-.171-.2-.255-.3q-2.28-2.758-4.662-5.383c-.5-.556-1.008-1.1-1.517-1.645q-1.868-2.015-3.793-3.944c-.513-.515-1.022-1.037-1.54-1.54-1.752-1.708-3.527-3.379-5.336-4.971-.043-.041-.09-.075-.136-.113-1.766-1.549-3.564-3.023-5.377-4.45-.556-.437-1.115-.854-1.674-1.28q-2.08-1.581-4.2-3.046c-.568-.394-1.132-.79-1.7-1.173-1.926-1.283-3.863-2.519-5.826-3.651-1.755-1.013-3.492-1.92-5.215-2.777-.417-.208-.831-.411-1.248-.611-1.7-.814-3.393-1.575-5.061-2.241-.119-.046-.235-.084-.353-.13-1.575-.62-3.127-1.155-4.665-1.642-.394-.124-.785-.249-1.176-.365-1.61-.478-3.205-.9-4.774-1.233-.046-.012-.093-.029-.139-.038-.287-.061-.562-.093-.848-.148-.938-.182-1.873-.353-2.794-.486-.457-.064-.906-.11-1.358-.162-.8-.1-1.593-.177-2.374-.232-.472-.032-.941-.055-1.407-.075q-1.138-.048-2.256-.038c-.455,0-.906,0-1.352.02-.776.026-1.541.084-2.3.151-.391.038-.785.058-1.17.1-.979.116-1.94.269-2.887.449-.151.029-.3.043-.449.075-1.091.22-2.16.492-3.208.8-.316.093-.62.208-.929.31-.727.235-1.451.481-2.154.762-.374.145-.738.31-1.106.469-.628.272-1.251.559-1.859.866-.182.093-.376.162-.556.258q-.665.352-1.317.73l-27.029,15.7c.611-.353,1.242-.666,1.87-.984.611-.307,1.233-.594,1.865-.869.368-.159.73-.321,1.1-.469.709-.278,1.433-.527,2.163-.762.307-.1.608-.214.921-.307,1.051-.31,2.119-.582,3.211-.8.139-.026.284-.043.42-.069.958-.182,1.931-.336,2.919-.452.379-.046.77-.069,1.155-.1.765-.067,1.532-.125,2.311-.153.446-.014.9-.017,1.346-.02.747-.006,1.5.009,2.261.038.466.02.932.043,1.4.078.785.055,1.578.136,2.377.229.452.055.9.1,1.352.165.929.133,1.87.3,2.814.489.324.061.643.11.967.18,1.569.333,3.168.759,4.78,1.236.388.116.782.24,1.173.362,1.535.486,3.081,1.019,4.647,1.636.127.049.252.09.379.139,1.665.666,3.353,1.427,5.052,2.238.414.2.834.405,1.251.614,1.723.857,3.457,1.763,5.212,2.777,1.963,1.132,3.9,2.366,5.823,3.648.576.382,1.144.785,1.717,1.181q2.1,1.459,4.175,3.032c.562.429,1.129.851,1.691,1.291,1.8,1.419,3.585,2.881,5.336,4.418.058.049.119.1.177.145,1.8,1.59,3.573,3.254,5.322,4.96.527.513,1.042,1.039,1.564,1.564q1.911,1.915,3.767,3.918c.513.55,1.025,1.1,1.532,1.659,1.593,1.766,3.159,3.564,4.688,5.414.072.09.148.171.22.258s.13.171.2.255c2.166,2.646,4.242,5.4,6.269,8.194.576.8,1.144,1.613,1.711,2.423q2.484,3.561,4.809,7.259c.391.623.8,1.228,1.181,1.853q2.775,4.534,5.273,9.225c.4.741.764,1.5,1.149,2.244q1.959,3.787,3.724,7.647c.431.944.871,1.885,1.286,2.832.686,1.578,1.332,3.165,1.969,4.754.457,1.138.927,2.279,1.358,3.422.623,1.656,1.19,3.321,1.755,4.983.368,1.083.759,2.166,1.1,3.252.579,1.836,1.086,3.671,1.593,5.507.252.918.539,1.836.773,2.754.7,2.748,1.323,5.5,1.847,8.232a57.782,57.782,0,0,1,8.634,4.117c1.989,1.147,3.941,2.447,5.866,3.822.593.423,1.173.88,1.758,1.323,1.349,1.019,2.684,2.082,4,3.205.62.527,1.236,1.06,1.844,1.61,1.355,1.222,2.684,2.5,3.99,3.825.46.463.932.906,1.384,1.381q2.588,2.719,5.024,5.663c.359.431.692.892,1.042,1.332,1.175,1.468,2.331,2.959,3.44,4.494.507.7.99,1.422,1.482,2.134.921,1.338,1.824,2.687,2.693,4.065.5.785.982,1.578,1.459,2.374.831,1.381,1.627,2.783,2.4,4.2.429.785.863,1.564,1.271,2.354.828,1.6,1.6,3.214,2.357,4.838.3.651.628,1.294.918,1.949.2.455.379.912.573,1.364q.895,2.111,1.705,4.236c.229.605.449,1.21.666,1.815q.743,2.067,1.39,4.143c.162.515.336,1.028.487,1.543.553,1.865,1.057,3.729,1.491,5.591.075.316.127.631.2.95q.517,2.332.909,4.647c.1.591.182,1.181.269,1.769q.291,2,.481,3.978c.052.556.113,1.112.154,1.665.136,1.821.223,3.631.217,5.412-.043,15.647-5.568,26.658-14.477,31.835l27.029-15.708c8.909-5.177,14.434-16.186,14.477-31.832C615.072,240.266,614.983,238.456,614.849,236.638Z" transform="translate(-341.615 -35.745)"/>
        </g>
        <path id="Path_47396" data-name="Path 47396" class="cls-3" d="M508.886,51.367c-34.835-20.112-64.157-9.491-72.375,22.964a74.93,74.93,0,0,0-8.628-5.849c-27.408-15.824-49.7-3.121-49.79,28.375-.084,29.513,19.356,65.049,44.353,82.43L589.2,275.862c27.411,15.826,49.7,3.121,49.79-28.375s-22.055-69.853-49.466-85.679a57.781,57.781,0,0,0-8.634-4.117C572.89,115.872,543.721,71.479,508.886,51.367Z" transform="translate(-378.093 -25.48)"/>
        <path id="Path_47403" data-name="Path 47403" class="cls-11" d="M508.886,51.367c-34.835-20.112-64.157-9.491-72.375,22.964a74.93,74.93,0,0,0-8.628-5.849c-27.408-15.824-49.7-3.121-49.79,28.375-.084,29.513,19.356,65.049,44.353,82.43L589.2,275.862c27.411,15.826,49.7,3.121,49.79-28.375s-22.055-69.853-49.466-85.679a57.781,57.781,0,0,0-8.634-4.117C572.89,115.872,543.721,71.479,508.886,51.367Z" transform="translate(-378.093 -25.48)"/>
        <g id="Group_81212" data-name="Group 81212" transform="translate(73.091 61.968)">
          <g id="Group_81211" data-name="Group 81211" class="cls-14" transform="translate(0 0)">
            <g id="Group_81200" data-name="Group 81200" transform="translate(24.777 67.248)">
              <path id="Path_54920" data-name="Path 54920" class="cls-15" d="M312.49,133.162l6.522-6.488,23.613,19.312-6.522,6.488Z" transform="translate(-312.49 -126.674)"/>
            </g>
            <path id="Path_54921" data-name="Path 54921" class="cls-16" d="M304.318,108.443l-.186-11.877-.293-18.744-6.522,6.488.294,18.744.186,11.877.235,15,6.522-6.488Z" transform="translate(-286.569 -55.743)"/>
            <path id="Path_54922" data-name="Path 54922" class="cls-15" d="M324.4,111.645l-12.461,3.64-6.522,6.488,12.461-3.64,10.569-3.082,6.522-6.488Z" transform="translate(-287.18 -58.061)"/>
            <g id="Group_81201" data-name="Group 81201" transform="translate(21.457 34.056)">
              <path id="Path_54923" data-name="Path 54923" class="cls-15" d="M308.9,100.992l6.522-6.488,12.789-3.729-6.522,6.488Z" transform="translate(-308.899 -90.775)"/>
            </g>
            <g id="Group_81202" data-name="Group 81202" transform="translate(59.686 49.065)">
              <path id="Path_54924" data-name="Path 54924" class="cls-15" d="M350.246,113.5l6.522-6.488,16.969,13.876-6.522,6.488Z" transform="translate(-350.246 -107.009)"/>
            </g>
            <path id="Path_54925" data-name="Path 54925" class="cls-15" d="M371.789,138.651l-10.569,3.082L344.552,146.6l-6.522,6.488,16.669-4.863,10.569-3.082,13.335-3.893,6.522-6.488Z" transform="translate(-289.639 -60.036)"/>
            <g id="Group_81203" data-name="Group 81203" transform="translate(88.963 74.722)">
              <path id="Path_54926" data-name="Path 54926" class="cls-15" d="M381.911,141.246l6.522-6.488.186,11.877-6.522,6.488Z" transform="translate(-381.911 -134.758)"/>
            </g>
            <path id="Path_54927" data-name="Path 54927" class="cls-15" d="M302.776,64.524l-10.562,3.084L285.692,74.1l10.562-3.084,19-5.537,6.522-6.488Z" transform="translate(-285.692 -54.323)"/>
            <g id="Group_81204" data-name="Group 81204" transform="translate(59.461 34.686)">
              <path id="Path_54928" data-name="Path 54928" class="cls-17" d="M350,97.945l6.522-6.488.225,14.379-6.522,6.488Z" transform="translate(-350.002 -91.458)"/>
            </g>
            <path id="Path_54929" data-name="Path 54929" class="cls-18" d="M340.658,86.3l-.219-14.017-6.522,6.488.219,14.017.186,11.87,6.522-6.488Z" transform="translate(-289.329 -55.325)"/>
            <g id="Group_81205" data-name="Group 81205" transform="translate(48.713 25.893)">
              <path id="Path_54930" data-name="Path 54930" class="cls-15" d="M338.378,88.435l6.522-6.488,10.748,8.793-6.522,6.488Z" transform="translate(-338.378 -81.947)"/>
            </g>
            <path id="Path_54931" data-name="Path 54931" class="cls-15" d="M334.932,67.773l-6.466-5.289-4.281-3.5-6.522,6.488,4.281,3.5,6.466,5.289,4.281,3.5,6.522-6.488Z" transform="translate(-288.103 -54.323)"/>
            <g id="Group_81206" data-name="Group 81206" transform="translate(34.953)">
              <path id="Path_54932" data-name="Path 54932" class="cls-15" d="M323.5,63.512l6.522-6.488,10.569-3.082-6.522,6.488Z" transform="translate(-323.496 -53.942)"/>
            </g>
            <path id="Path_54933" data-name="Path 54933" class="cls-19" d="M386.288,102.346l-.186-11.87-6.522,6.488.186,11.87.334,21.352,6.522-6.488Z" transform="translate(-292.772 -56.697)"/>
            <g id="Group_81207" data-name="Group 81207" transform="translate(41.267 0)">
              <path id="Path_54934" data-name="Path 54934" class="cls-15" d="M336.847,108.563l-6.522,6.488,10.748,8.794,13.014,10.65,6.522-6.488-13.014-10.65Z" transform="translate(-330.325 -58.061)"/>
              <path id="Path_54935" data-name="Path 54935" class="cls-15" d="M371.988,78.928,355.018,65.044l-10.748-8.793-2.822-2.309-6.522,6.488,2.822,2.309L348.5,71.532l16.969,13.883,10.748,8.793,6.522-6.488Z" transform="translate(-330.672 -53.942)"/>
            </g>
            <g id="Group_81208" data-name="Group 81208" transform="translate(18.237 56.99)">
              <path id="Path_54936" data-name="Path 54936" class="cls-12" d="M362.808,143.693l13.335-3.893.186,11.877-2.773.809-10.562,3.077-16.676,4.868-10.562,3.084L325,154.719l-19.325-15.813-.074-4.727-.112-7.143-.074-4.734,12.461-3.64,10.569-3.082,10.748,8.794,13.014,10.65L341.647,138.1l-13.014-10.643-16.676,4.868,23.613,19.312,16.668-4.863Z" transform="translate(-305.416 -115.58)"/>
            </g>
            <g id="Group_81209" data-name="Group 81209" transform="translate(0 11.152)">
              <path id="Path_54937" data-name="Path 54937" class="cls-12" d="M319.938,95.4l-.293-18.744L296.44,83.418l.293,18.744.186,11.877.235,15-10.747-8.793-.049-3.118-.186-11.877L285.878,86.5l-.186-11.877,10.562-3.084,19-5.537,4.281,3.5L326,74.79l4.281,3.5.219,14.017.186,11.87-10.561,3.084L307.335,111l-.186-11.877Z" transform="translate(-285.692 -66.004)"/>
            </g>
            <g id="Group_81210" data-name="Group 81210" transform="translate(34.953 6.488)">
              <path id="Path_54938" data-name="Path 54938" class="cls-12" d="M347.82,83.939l-10.748-8.793L323.5,64.041l10.569-3.082,2.822,2.309,10.748,8.793L364.6,85.945l10.747,8.793.186,11.87.334,21.352-4.207,1.23-6.354,1.854-4.214,1.228-12.681-10.377-10.747-8.786-.186-11.877-.225-14.379L348,95.646l.225,14.379L365.2,123.9l-.408-26.079Z" transform="translate(-323.496 -60.959)"/>
            </g>
          </g>
        </g>
      </g>
    </g>
    <path id="Path_47397" data-name="Path 47397" class="cls-8" d="M457.445,262.274c5.092-2.94,14.336-8.622,14.336-8.622V180.333h3.088v75.1l-17.424,9.859" transform="translate(867.607 1024.315)"/>
    <g id="Group_77305" data-name="Group 77305" transform="translate(1187.793 985.907)">
      <path id="Path_47398" data-name="Path 47398" class="cls-7" d="M411.514,109.6c0,1.642-1.152,2.308-2.574,1.488a5.693,5.693,0,0,1-2.577-4.462c0-1.642,1.152-2.308,2.577-1.485A5.693,5.693,0,0,1,411.514,109.6Z" transform="translate(-406.363 -104.786)"/>
      <path id="Path_47399" data-name="Path 47399" class="cls-7" d="M419.345,114.348c0,1.642-1.152,2.308-2.574,1.488a5.7,5.7,0,0,1-2.574-4.462c0-1.642,1.152-2.308,2.574-1.485A5.693,5.693,0,0,1,419.345,114.348Z" transform="translate(-391.514 -95.783)"/>
      <path id="Path_47400" data-name="Path 47400" class="cls-7" d="M427.181,119.1c0,1.642-1.155,2.308-2.577,1.488a5.7,5.7,0,0,1-2.574-4.462c0-1.642,1.152-2.308,2.574-1.485A5.7,5.7,0,0,1,427.181,119.1Z" transform="translate(-376.667 -86.78)"/>
      <path id="Path_47401" data-name="Path 47401" class="cls-7" d="M435.014,123.848c0,1.642-1.152,2.308-2.574,1.488a5.693,5.693,0,0,1-2.577-4.462c0-1.642,1.152-2.308,2.577-1.485A5.693,5.693,0,0,1,435.014,123.848Z" transform="translate(-361.82 -77.776)"/>
    </g>
  </g>
</svg>
