<svg xmlns="http://www.w3.org/2000/svg" width="182" height="37" viewBox="0 0 182 37"><defs><linearGradient id="xa9ea" x1="154" x2="158.05" y1="10.6" y2="10.6" gradientUnits="userSpaceOnUse"><stop offset="0" stop-color="#0072ff"/><stop offset="1" stop-color="#00bbe6"/></linearGradient><linearGradient id="xa9eb" x1="138.63" x2="181.7" y1="12.14" y2="12.14" gradientUnits="userSpaceOnUse"><stop offset="0" stop-color="#0072ff"/><stop offset="1" stop-color="#00bbe6"/></linearGradient></defs><g><g><g><path fill="#cecece" d="M2.944 36.957v-7.402H.312v-.506h5.816v.506H3.496v7.402z"/></g><g><path fill="#cecece" d="M7.84 36.957v-7.908h.552v3.655h4.805V29.05h.552v7.908h-.552V33.21H8.392v3.747z"/></g><g><path fill="#cecece" d="M16.3 36.957v-7.908h4.954v.506h-4.402v3.15h3.862v.505h-3.862v3.24h4.402v.507z"/></g><g><path fill="#cecece" d="M25.794 36.957v-7.908h.552v7.908z"/></g><g><path fill="#cecece" d="M28.909 36.957v-7.908h.552l4.781 6.885h.046v-6.885h.529v7.908h-.529l-4.793-6.92h-.046v6.92z"/></g><g><path fill="#cecece" d="M39.162 36.957v-7.402H36.53v-.506h5.816v.506h-2.633v7.402z"/></g><g><path fill="#cecece" d="M44.058 36.957v-7.908h4.954v.506H44.61v3.15h3.862v.505H44.61v3.24h4.402v.507z"/></g><g><path fill="#cecece" d="M50.943 36.957v-7.908h.552v7.402h3.942v.506z"/></g><g><path fill="#cecece" d="M57.104 36.957v-7.908h.551v7.402h3.943v.506z"/></g><g><path fill="#cecece" d="M63.264 36.957v-7.908h.552v7.908z"/></g><g><path fill="#cecece" d="M69.368 37.049a9.554 9.554 0 0 1-1.391-.086c-.383-.058-.697-.165-.942-.322a1.525 1.525 0 0 1-.57-.684c-.133-.299-.227-.688-.281-1.167a16.556 16.556 0 0 1-.08-1.787c0-.713.026-1.308.08-1.787.054-.479.15-.868.288-1.167.137-.299.33-.527.58-.684.249-.157.563-.264.942-.322.38-.057.837-.086 1.374-.086.26 0 .538.01.833.029.295.02.58.044.856.075.276.03.518.069.725.115v.47c-.23-.037-.472-.07-.725-.097a19.034 19.034 0 0 0-.724-.063 9.15 9.15 0 0 0-.586-.023c-.506 0-.939.012-1.299.034-.36.023-.657.09-.89.201a1.18 1.18 0 0 0-.547.546c-.13.253-.222.6-.275 1.04-.054.441-.081 1.014-.081 1.719 0 .62.016 1.142.046 1.563.03.422.1.763.207 1.023.107.26.26.462.46.604.199.141.46.237.782.287.321.05.727.075 1.218.075.176 0 .38-.008.615-.023a41.18 41.18 0 0 0 1.293-.104v-3.046h-2.127v-.494h2.667v3.954c-.245.046-.514.084-.805.115a17.162 17.162 0 0 1-1.643.092z"/></g><g><path fill="#cecece" d="M74.207 36.957v-7.908h4.954v.506h-4.403v3.15h3.862v.505h-3.862v3.24h4.403v.507z"/></g><g><path fill="#cecece" d="M81.092 36.957v-7.908h.551l4.782 6.885h.046v-6.885H87v7.908h-.53l-4.792-6.92h-.046v6.92z"/></g><g><path fill="#cecece" d="M91.344 36.957v-7.402h-2.632v-.506h5.816v.506h-2.632v7.402z"/></g><g><path fill="#cecece" d="M100.218 36.957l-2.3-7.908h.587l2 7.034h.069l2.207-7.034h.586l2.218 7.034h.057l2-7.034h.564l-2.3 7.908h-.585l-2.242-6.977h-.045l-2.23 6.977z"/></g><g><path fill="#cecece" d="M111.964 29.739h.058l1.7 4.253h-3.47zm-2.896 7.218l.988-2.46h3.862l.99 2.46h.585l-3.195-7.908h-.61l-3.195 7.908z"/></g><g><path fill="#cecece" d="M118.286 36.957v-3.184l-2.966-4.724h.621l2.598 4.16h.08l2.598-4.16h.597l-2.976 4.724v3.184z"/></g><g><path fill="#cecece" d="M127.527 36.957v-7.402h-2.632v-.506h5.816v.506h-2.632v7.402z"/></g><g><path fill="#cecece" d="M134.113 36.503c-.314-.027-.567-.096-.759-.207-.191-.111-.335-.293-.43-.546-.097-.253-.158-.6-.185-1.04-.027-.44-.04-1.01-.04-1.707 0-.697.013-1.266.04-1.707.027-.44.088-.787.184-1.04s.24-.435.431-.546c.192-.111.445-.18.759-.207.314-.027.713-.04 1.195-.04.475 0 .872.013 1.19.04.318.027.573.096.764.207.192.111.335.293.431.546.096.253.157.6.184 1.04.027.44.04 1.01.04 1.707 0 .697-.013 1.266-.04 1.707-.027.44-.088.787-.184 1.04s-.24.435-.43.546c-.192.111-.447.18-.765.207-.318.027-.715.04-1.19.04-.482 0-.881-.013-1.195-.04zm2.678.46c.39-.058.699-.165.925-.322.226-.157.393-.385.5-.684.107-.299.176-.688.207-1.167.03-.478.046-1.074.046-1.787 0-.713-.015-1.308-.046-1.787-.03-.479-.1-.868-.207-1.167a1.364 1.364 0 0 0-.5-.684c-.226-.157-.534-.264-.925-.322-.39-.057-.885-.086-1.483-.086-.598 0-1.091.029-1.482.086-.391.058-.7.165-.926.322a1.363 1.363 0 0 0-.5.684c-.107.299-.176.688-.207 1.167a28.72 28.72 0 0 0-.046 1.787c0 .713.016 1.309.046 1.787.03.48.1.868.207 1.167.108.299.274.527.5.684.226.157.535.264.926.322.39.057.884.086 1.482.086s1.092-.029 1.483-.086z"/></g><g><path fill="#cecece" d="M143.354 36.957v-7.908h.552v7.908z"/></g><g><path fill="#cecece" d="M146.469 36.957v-7.908h.552l4.781 6.885h.046v-6.885h.529v7.908h-.529l-4.793-6.92h-.046v6.92z"/></g><g><path fill="#cecece" d="M157.158 36.957l-3.08-7.908h.597l2.759 7.15h.057l2.782-7.15h.563l-3.069 7.908z"/></g><g><path fill="#cecece" d="M162.549 36.957v-7.908h4.953v.506H163.1v3.15h3.862v.505H163.1v3.24h4.402v.507z"/></g><g><path fill="#cecece" d="M171.974 37.049a26.364 26.364 0 0 1-1.868-.07c-.31-.022-.588-.045-.833-.068v-.517c.26.023.546.046.856.069.31.022.615.042.914.057.299.016.555.023.77.023.398 0 .73-.015.994-.046.265-.03.504-.103.719-.218a.784.784 0 0 0 .321-.34 1.48 1.48 0 0 0 .133-.5 8.568 8.568 0 0 0 0-1.396c-.02-.195-.07-.347-.15-.454-.08-.107-.217-.184-.408-.23a7.003 7.003 0 0 0-.781-.126l-2.07-.219c-.367-.038-.655-.109-.861-.212a1.047 1.047 0 0 1-.455-.402 1.43 1.43 0 0 1-.178-.58 7.364 7.364 0 0 1-.034-.748c0-.452.055-.818.166-1.098.111-.28.28-.492.506-.638.226-.145.513-.245.863-.298.348-.054.756-.081 1.224-.081.29 0 .585.006.884.017.3.012.58.031.84.058.26.027.47.055.632.086v.483a9.624 9.624 0 0 0-.713-.075 28.61 28.61 0 0 0-.81-.046 18.073 18.073 0 0 0-.765-.017c-.46 0-.837.023-1.132.069-.295.046-.53.13-.707.253a.8.8 0 0 0-.362.517c-.05.222-.075.482-.075.782 0 .352.024.624.07.815.045.192.149.33.31.414.16.085.398.142.713.173l1.988.218c.322.023.603.06.845.11.241.05.439.13.592.24.153.112.268.282.344.512.031.1.054.21.07.328.015.119.024.251.028.396.004.146.006.307.006.483 0 .43-.038.786-.115 1.07-.077.282-.192.505-.345.666-.153.16-.335.281-.546.362-.21.08-.448.13-.713.15-.264.018-.553.028-.867.028z"/></g><g><path fill="#cecece" d="M178.514 36.957v-7.402h-2.632v-.506h5.816v.506h-2.632v7.402z"/></g></g><g><g><path fill="url(#xa9ea)" d="M155.93 7.502l-1.927 6.191h4.044l-1.95-6.191z"/></g><g><path fill="url(#xa9eb)" d="M170.133 19.726h-4.14V4.123h4.14zm-10.206 0l-1-3.062h-5.805l-.975 3.062h-4.068l5.186-15.603h5.639l5.21 15.603zM138.632.585v23.118h43.066V.585z"/></g></g><g><g><path fill="#fff" d="M11.379 10.467c0 .335-.294.607-.628.607H2.96v-4.44h7.79a.63.63 0 0 1 .628.63zm2.638-3.518a2.806 2.806 0 0 0-2.806-2.806H.302V18.8h2.66v-5.213h8.25a2.81 2.81 0 0 0 2.805-2.827z"/></g><g><path fill="#fff" d="M18.98 11.074v-4.44h8.418a.63.63 0 0 1 .628.63v3.203c0 .335-.293.607-.628.607zm8.879 2.513a2.81 2.81 0 0 0 2.806-2.827V6.95a2.806 2.806 0 0 0-2.806-2.807H16.32V18.8h2.66v-5.213h4.816l4.376 5.213h3.12l-4.377-5.213z"/></g><g><path fill="#fff" d="M36.152 4.143h9.045v2.492h-8.585a.612.612 0 0 0-.607.628v2.952h7.936v2.513h-7.936v2.953c0 .356.272.628.607.628h8.585V18.8h-9.045a2.806 2.806 0 0 1-2.806-2.805V6.949a2.806 2.806 0 0 1 2.806-2.806z"/></g><g><path fill="#fff" d="M59.08 14.13a2.19 2.19 0 0 1-2.177 2.179h-6.7V6.635h6.7a2.19 2.19 0 0 1 2.178 2.178zm-1.716-9.987h-9.82V18.8h9.82a4.374 4.374 0 0 0 4.376-4.376V8.52a4.374 4.374 0 0 0-4.376-4.376z"/></g><g><path fill="#fff" d="M64.379 18.8V4.143h2.66V18.8z"/></g><g><path fill="#fff" d="M72.65 4.143h9.046v2.492H73.11a.613.613 0 0 0-.607.628v8.418c0 .356.272.628.607.628h8.585V18.8H72.65a2.806 2.806 0 0 1-2.806-2.805V6.949a2.806 2.806 0 0 1 2.806-2.806z"/></g><g><path fill="#fff" d="M82.597 4.143h13.108v2.492H90.47V18.8h-2.66V6.635h-5.213z"/></g><g><path fill="#fff" d="M109.065 4.143h2.638v11.852a2.806 2.806 0 0 1-2.806 2.805h-8.731a2.806 2.806 0 0 1-2.806-2.805V4.143h2.659v11.538c0 .356.272.628.607.628h7.81a.63.63 0 0 0 .629-.628z"/></g><g><path fill="#fff" d="M130.507 4.143V18.8h-2.66V8.603l-3.978 5.989h-2.659l-3.957-5.989V18.8h-2.66V4.143h2.807l5.15 7.727 5.151-7.727h.147z"/></g></g></g></svg>