<svg xmlns="http://www.w3.org/2000/svg" width="64" height="72" viewBox="0 0 64 72"><defs><linearGradient id="n2kqa" x1=".94" x2="63.06" y1="36.28" y2="36.28" gradientUnits="userSpaceOnUse"><stop offset="0" stop-color="#0072ff"/><stop offset="1" stop-color="#00bbe6"/></linearGradient></defs><g><g><path fill="url(#n2kqa)" d="M8.429 56.771L.937 52.446V19.22l7.492-4.325 13.47-7.776 2.984 1.723 4.507 2.602 2.985 1.723v18.858l-7.492 4.325-9.07 5.237v-8.651l9.07-5.236V14.045l-16.454 9.5zm37.683-.263l7.492-4.325 9.459-5.462v8.652l-1.967 1.135-7.492 4.326L41.78 67.66l-7.492 4.326-7.492-4.326-13.47-7.777V47.786l8.84-5.103 7.492-4.326 7.492 4.326 9.07 5.236-7.493 4.325-9.07-5.235-11.823 6.826 16.454 9.5zm-3.433-41.815l-7.492-4.326-9.459-5.46L33.22.58l1.967 1.135 7.492 4.326 11.824 6.826 7.492 4.326v24.204L59.01 43.12l-4.507 2.602-2.985 1.723-8.84-5.103-7.491-4.325V18.894l7.492 4.326v10.472l11.824 6.827v-19z"/></g></g></svg>