<svg xmlns="http://www.w3.org/2000/svg" width="16" height="16" viewBox="0 0 16 16"><g><g><path fill="#fff" d="M15.45 15.036a.466.466 0 0 1-.465.465H12.67a.466.466 0 0 1-.466-.465v-4.24c0-.632.186-2.771-1.653-2.771-1.425 0-1.715 1.464-1.773 2.12v4.89a.466.466 0 0 1-.465.466H6.076a.466.466 0 0 1-.466-.465v-9.12c0-.257.209-.466.466-.466h2.238c.257 0 .465.209.465.466v.788c.529-.793 1.315-1.406 2.988-1.406 3.705 0 3.683 3.462 3.683 5.363zM2.598 4.598a2.048 2.048 0 1 1 0-4.097 2.048 2.048 0 0 1 0 4.097zm1.585 10.397c0 .28-.227.506-.507.506H1.52a.506.506 0 0 1-.507-.506V5.957c0-.28.227-.507.507-.507h2.156c.28 0 .507.227.507.507z"/></g></g></svg>