<svg xmlns="http://www.w3.org/2000/svg" width="31" height="30" viewBox="0 0 31 30"><g><g><g><path fill="#fff" d="M29.453 24.776l-3.44-3.394a15.013 15.013 0 0 1-3.883 3.883l3.442 3.392a2.743 2.743 0 0 0 3.88 0 2.739 2.739 0 0 0 0-3.881z"/></g><g><path fill="#fff" d="M6.848 19.82c-3.78-3.782-3.78-9.935 0-13.717 3.78-3.78 9.934-3.78 13.715 0 3.782 3.782 3.782 9.935 0 13.716-3.781 3.782-9.935 3.782-13.715 0zM26.67 12.96c0-7.148-5.816-12.964-12.964-12.964C6.558-.003.742 5.813.742 12.961c0 7.149 5.816 12.965 12.965 12.965 7.148 0 12.964-5.816 12.964-12.965z"/></g></g></g></svg>