<svg xmlns="http://www.w3.org/2000/svg" width="16" height="15" viewBox="0 0 16 15"><g><g><g><path fill="#fff" d="M11.995 9.897c-.495-.488-1.112-.488-1.603 0-.375.372-.75.743-1.118 1.121-.1.104-.186.126-.309.057-.242-.133-.5-.24-.733-.384-1.087-.684-1.997-1.562-2.803-2.551-.4-.491-.756-1.017-1.005-1.61-.05-.119-.04-.198.057-.295.375-.362.74-.734 1.109-1.106.513-.516.513-1.12-.004-1.64-.292-.296-.585-.586-.878-.882C4.406 2.305 4.106 2 3.8 1.7c-.494-.482-1.112-.482-1.603.003-.378.372-.74.753-1.124 1.118-.356.337-.535.75-.573 1.231-.06.785.132 1.525.403 2.246.554 1.492 1.398 2.818 2.421 4.034a14.985 14.985 0 0 0 4.963 3.882c.87.422 1.77.747 2.75.8.673.038 1.259-.132 1.728-.658.321-.359.683-.687 1.024-1.03.503-.51.506-1.127.006-1.63-.598-.602-1.2-1.2-1.801-1.799z"/></g><g><path fill="#fff" d="M11.936 7.294h.001a.589.589 0 0 0 .465-.752 5.207 5.207 0 0 0-1.299-2.156 5.167 5.167 0 0 0-2.305-1.343.59.59 0 0 0-.312 1.138 4.003 4.003 0 0 1 1.786 1.04c.469.468.81 1.036 1.001 1.661a.59.59 0 0 0 .663.412z"/></g><g><path fill="#fff" d="M13.21 2.336a8.564 8.564 0 0 0-4.29-2.34.59.59 0 0 0-.707.495.588.588 0 0 0 .456.658c1.406.301 2.68.995 3.71 2.022a7.425 7.425 0 0 1 1.97 3.482.589.589 0 1 0 1.143-.284 8.633 8.633 0 0 0-2.282-4.033z"/></g></g></g></svg>