<svg xmlns="http://www.w3.org/2000/svg" width="16" height="14" viewBox="0 0 16 14"><g><g><path fill="#fff" d="M15.5 2.35a6.411 6.411 0 0 1-1.772.486 3.058 3.058 0 0 0 1.353-1.7 6.146 6.146 0 0 1-1.95.745 3.074 3.074 0 0 0-5.32 2.103c0 .243.021.478.072.7a8.704 8.704 0 0 1-6.339-3.216 3.08 3.08 0 0 0 .945 4.11A3.037 3.037 0 0 1 1.1 5.2v.034a3.09 3.09 0 0 0 2.465 3.022 3.07 3.07 0 0 1-.807.1c-.197 0-.395-.01-.582-.052a3.104 3.104 0 0 0 2.874 2.143 6.179 6.179 0 0 1-3.813 1.311 5.76 5.76 0 0 1-.736-.042 8.657 8.657 0 0 0 4.717 1.38c5.66 0 8.753-4.687 8.753-8.75 0-.137-.005-.268-.011-.398a6.135 6.135 0 0 0 1.54-1.597z"/></g></g></svg>