<svg xmlns="http://www.w3.org/2000/svg" width="216" height="50" viewBox="0 0 216 50"><defs><linearGradient id="x7h2a" x1="191.57" x2="195.07" y1="18.02" y2="18.02" gradientUnits="userSpaceOnUse"><stop offset="0" stop-color="#0072ff"/><stop offset="1" stop-color="#00bbe6"/></linearGradient><linearGradient id="x7h2b" x1="178.25" x2="215.56" y1="19.36" y2="19.36" gradientUnits="userSpaceOnUse"><stop offset="0" stop-color="#0072ff"/><stop offset="1" stop-color="#00bbe6"/></linearGradient><linearGradient id="x7h2c" x1=".87" x2="43.03" y1="25.13" y2="25.13" gradientUnits="userSpaceOnUse"><stop offset="0" stop-color="#0072ff"/><stop offset="1" stop-color="#00bbe6"/></linearGradient></defs><g><g><g><g><path fill="#cecece" d="M60.68 40.86v-6.414H58.4v-.438h5.039v.438h-2.281v6.414z"/></g><g><path fill="#cecece" d="M64.923 40.86v-6.852h.477v3.167h4.163v-3.167h.478v6.852h-.478v-3.247H65.4v3.247z"/></g><g><path fill="#cecece" d="M72.252 40.86v-6.852h4.293v.438H72.73v2.73h3.347v.437H72.73v2.809h3.815v.438z"/></g><g><path fill="#cecece" d="M80.479 40.86v-6.852h.478v6.852z"/></g><g><path fill="#cecece" d="M83.177 40.86v-6.852h.478l4.143 5.966h.04v-5.966h.458v6.852h-.458l-4.153-5.995h-.04v5.995z"/></g><g><path fill="#cecece" d="M92.06 40.86v-6.414h-2.28v-.438h5.04v.438h-2.281v6.414z"/></g><g><path fill="#cecece" d="M96.303 40.86v-6.852h4.293v.438H96.78v2.73h3.346v.437h-3.346v2.809h3.815v.438z"/></g><g><path fill="#cecece" d="M102.269 40.86v-6.852h.478v6.414h3.416v.438z"/></g><g><path fill="#cecece" d="M107.607 40.86v-6.852h.478v6.414h3.416v.438z"/></g><g><path fill="#cecece" d="M112.945 40.86v-6.852h.478v6.852z"/></g><g><path fill="#cecece" d="M118.233 40.94c-.472 0-.873-.025-1.205-.075-.332-.05-.604-.143-.817-.279a1.323 1.323 0 0 1-.493-.592c-.116-.26-.197-.596-.244-1.011-.046-.415-.07-.931-.07-1.549 0-.617.024-1.133.07-1.548.047-.415.13-.752.25-1.011.119-.26.286-.457.502-.593.216-.136.488-.229.817-.279.329-.05.725-.074 1.19-.074.226 0 .466.008.722.025.256.016.503.038.742.064.239.027.448.06.628.1v.408c-.2-.033-.409-.061-.628-.084a16.53 16.53 0 0 0-.627-.055c-.2-.013-.369-.02-.508-.02-.438 0-.814.01-1.126.03-.312.02-.569.078-.771.174-.203.097-.36.254-.474.473-.112.22-.192.52-.239.901-.046.382-.07.878-.07 1.49 0 .537.014.989.04 1.354.027.365.087.66.18.886.093.226.226.4.398.523.173.123.399.206.677.249.28.043.631.065 1.056.065.153 0 .33-.007.533-.02a35.128 35.128 0 0 0 1.12-.09v-2.64h-1.842v-.427h2.31v3.425a8.75 8.75 0 0 1-.697.1 14.953 14.953 0 0 1-1.424.08z"/></g><g><path fill="#cecece" d="M122.426 40.86v-6.852h4.292v.438h-3.814v2.73h3.346v.437h-3.346v2.809h3.814v.438z"/></g><g><path fill="#cecece" d="M128.391 40.86v-6.852h.478l4.143 5.966h.04v-5.966h.458v6.852h-.458l-4.153-5.995h-.04v5.995z"/></g><g><path fill="#cecece" d="M137.275 40.86v-6.414h-2.28v-.438h5.038v.438h-2.28v6.414z"/></g><g><path fill="#cecece" d="M144.963 40.86l-1.992-6.852h.508l1.733 6.095h.06l1.912-6.095h.508l1.922 6.095h.05l1.732-6.095h.488l-1.991 6.852h-.508l-1.942-6.045h-.04l-1.932 6.045z"/></g><g><path fill="#cecece" d="M155.141 34.606h.05l1.474 3.685h-3.008zm-2.51 6.254l.857-2.131h3.346l.857 2.131h.507l-2.768-6.852h-.528l-2.769 6.852z"/></g><g><path fill="#cecece" d="M160.619 40.86v-2.758l-2.57-4.094h.538l2.25 3.605h.07l2.251-3.605h.518l-2.58 4.094v2.758z"/></g><g><path fill="#cecece" d="M168.625 40.86v-6.414h-2.28v-.438h5.04v.438h-2.281v6.414z"/></g><g><path fill="#cecece" d="M174.332 40.467c-.272-.023-.491-.083-.657-.18-.166-.096-.29-.253-.374-.473-.083-.219-.136-.519-.16-.9a25.234 25.234 0 0 1-.034-1.48c0-.604.012-1.097.035-1.479.023-.381.076-.682.16-.901.082-.219.207-.377.373-.473.166-.096.385-.156.657-.18.272-.022.618-.034 1.036-.034.411 0 .755.012 1.03.035.276.023.497.083.663.179.166.096.29.254.373.473.083.22.136.52.16.901.023.382.035.875.035 1.48 0 .604-.012 1.096-.035 1.478-.024.382-.077.682-.16.901-.083.22-.207.377-.373.474-.166.096-.387.156-.662.179-.276.023-.62.035-1.031.035-.418 0-.764-.012-1.036-.035zm2.32.398c.339-.05.606-.143.802-.279.196-.136.34-.333.433-.592.093-.26.153-.596.18-1.011.026-.415.04-.931.04-1.549 0-.617-.014-1.133-.04-1.548-.027-.415-.087-.752-.18-1.011a1.183 1.183 0 0 0-.433-.593c-.196-.136-.463-.229-.801-.279a9.113 9.113 0 0 0-1.285-.074c-.518 0-.946.025-1.285.074-.339.05-.606.143-.802.28a1.18 1.18 0 0 0-.433.592c-.093.259-.153.596-.18 1.01-.026.416-.039.932-.039 1.55 0 .617.013 1.133.04 1.548.026.415.086.752.18 1.01.092.26.236.457.432.593.196.136.463.23.802.28.339.049.767.074 1.285.074.518 0 .946-.025 1.285-.075z"/></g><g><path fill="#cecece" d="M182.339 40.86v-6.852h.478v6.852z"/></g><g><path fill="#cecece" d="M185.038 40.86v-6.852h.478l4.143 5.966h.04v-5.966h.458v6.852h-.458l-4.153-5.995h-.04v5.995z"/></g><g><path fill="#cecece" d="M194.3 40.86l-2.67-6.852h.519l2.39 6.195h.05l2.41-6.195h.488l-2.66 6.852z"/></g><g><path fill="#cecece" d="M198.97 40.86v-6.852h4.293v.438h-3.814v2.73h3.346v.437h-3.346v2.809h3.814v.438z"/></g><g><path fill="#cecece" d="M207.137 40.94a22.701 22.701 0 0 1-1.618-.06c-.27-.02-.51-.04-.723-.06v-.448a52.918 52.918 0 0 0 1.534.11c.26.013.482.02.667.02.346 0 .633-.014.862-.04.229-.027.436-.09.623-.19a.68.68 0 0 0 .278-.293c.06-.123.098-.268.115-.433a7.342 7.342 0 0 0 0-1.21.777.777 0 0 0-.13-.394c-.07-.093-.188-.16-.353-.2a6.07 6.07 0 0 0-.677-.109l-1.793-.189c-.319-.033-.568-.094-.747-.184a.906.906 0 0 1-.393-.349 1.241 1.241 0 0 1-.155-.503 6.379 6.379 0 0 1-.03-.647c0-.391.048-.709.145-.951.096-.242.242-.426.438-.553.196-.126.445-.212.747-.259a7.09 7.09 0 0 1 1.06-.07c.253 0 .508.006.767.016.26.01.502.026.728.05.225.023.408.048.547.074v.418a8.375 8.375 0 0 0-.617-.064c-.233-.017-.467-.03-.703-.04-.235-.01-.456-.015-.662-.015a6.6 6.6 0 0 0-.98.06 1.46 1.46 0 0 0-.613.219.693.693 0 0 0-.314.448 3.12 3.12 0 0 0-.065.677c0 .306.02.541.06.707.04.166.13.286.269.359.14.073.345.123.618.15l1.722.188c.28.02.523.052.732.095.21.043.38.113.513.209a.864.864 0 0 1 .299.443c.027.087.046.181.06.284.013.103.021.218.025.344.003.126.005.265.005.418 0 .372-.034.68-.1.926a1.321 1.321 0 0 1-.299.578c-.132.14-.29.244-.473.314a2.17 2.17 0 0 1-.617.129c-.23.016-.48.025-.752.025z"/></g><g><path fill="#cecece" d="M212.804 40.86v-6.414h-2.281v-.438h5.04v.438h-2.281v6.414z"/></g></g><g><g><path fill="url(#x7h2a)" d="M193.235 15.339l-1.67 5.364h3.505l-1.69-5.364z"/></g><g><path fill="url(#x7h2b)" d="M205.542 25.93h-3.587V12.41h3.587zm-8.843 0l-.866-2.653h-5.03l-.845 2.653h-3.525l4.494-13.52h4.885l4.515 13.52zM178.247 9.345v20.031h37.315V9.346z"/></g></g><g><g><path fill="#fff" d="M67.988 17.908c0 .29-.254.526-.544.526h-6.75v-3.847h6.75c.29 0 .544.236.544.545zm2.286-3.048a2.431 2.431 0 0 0-2.431-2.432H58.39v12.7h2.305v-4.517h7.148a2.435 2.435 0 0 0 2.431-2.45V14.86z"/></g><g><path fill="#fff" d="M74.575 18.434v-3.847h7.293c.29 0 .544.236.544.545v2.776c0 .29-.254.526-.544.526zm7.692 2.177a2.435 2.435 0 0 0 2.431-2.45V14.86a2.431 2.431 0 0 0-2.43-2.432H72.27v12.7h2.304v-4.517h4.173l3.791 4.517h2.704l-3.792-4.517z"/></g><g><path fill="#fff" d="M89.453 12.428h7.837v2.16h-7.438a.53.53 0 0 0-.527.544v2.558h6.877v2.177h-6.877v2.558a.53.53 0 0 0 .527.544h7.438v2.16h-7.837a2.431 2.431 0 0 1-2.432-2.432V14.86a2.431 2.431 0 0 1 2.432-2.432z"/></g><g><path fill="#fff" d="M109.32 21.082a1.897 1.897 0 0 1-1.887 1.887h-5.806v-8.382h5.806c1.034 0 1.887.853 1.887 1.887zm-1.488-8.654h-8.51v12.7h8.51a3.79 3.79 0 0 0 3.792-3.792V16.22a3.79 3.79 0 0 0-3.792-3.792z"/></g><g><path fill="#fff" d="M113.91 25.128v-12.7h2.304v12.7z"/></g><g><path fill="#fff" d="M121.077 12.428h7.838v2.16h-7.439a.53.53 0 0 0-.526.544v7.293a.53.53 0 0 0 .526.544h7.439v2.16h-7.838a2.431 2.431 0 0 1-2.431-2.432V14.86a2.431 2.431 0 0 1 2.431-2.432z"/></g><g><path fill="#fff" d="M129.696 12.428h11.357v2.16h-4.536v10.54h-2.304v-10.54h-4.517z"/></g><g><path fill="#fff" d="M152.629 12.428h2.286v10.27a2.431 2.431 0 0 1-2.431 2.43h-7.566a2.431 2.431 0 0 1-2.431-2.43v-10.27h2.304v9.997a.53.53 0 0 0 .526.544h6.767c.29 0 .545-.235.545-.544z"/></g><g><path fill="#fff" d="M171.208 12.428v12.7h-2.304v-8.835l-3.448 5.189h-2.304l-3.429-5.19v8.836h-2.304v-12.7h2.432l4.463 6.695 4.463-6.695h.127z"/></g></g><g><g><path fill="url(#x7h2c)" d="M5.95 25.75v13.282L.868 36.097v-22.55l5.084-2.935 9.14-5.277 2.026 1.17 3.06 1.765 2.025 1.17v12.798l-5.085 2.935-6.154 3.554v-5.871l6.154-3.554v-9.266L5.951 16.483zm25.575 13.104l5.084-2.936 6.42-3.706v5.871l-1.336.77-5.084 2.936-8.024 4.633-5.085 2.936-5.085-2.936-9.14-5.278v-8.21l5.998-3.463 5.085-2.935 5.085 2.935 6.154 3.554-5.084 2.935-6.155-3.553-8.024 4.633L23.5 43.486zm-2.33-28.378L24.11 7.54l-6.419-3.706L22.775.9l1.335.77 5.085 2.936 8.024 4.633 5.085 2.936v16.425l-2.027 1.17-3.058 1.765-2.026 1.17-5.998-3.463-5.085-2.936V13.327l5.085 2.936v7.107l8.024 4.633V15.109z"/></g></g></g></g></svg>